<svg xmlns="http://www.w3.org/2000/svg" xmlns:xlink="http://www.w3.org/1999/xlink" width="500" zoomAndPan="magnify" viewBox="0 0 375 374.999991" height="500" preserveAspectRatio="xMidYMid meet" version="1.0"><defs><clipPath id="802bcf078c"><path d="M 138 101.167969 L 239 101.167969 L 239 204 L 138 204 Z M 138 101.167969 " clip-rule="nonzero"/></clipPath><clipPath id="3a45782e6e"><path d="M 254 142 L 275.265625 142 L 275.265625 196 L 254 196 Z M 254 142 " clip-rule="nonzero"/></clipPath><clipPath id="93d5cedf7d"><path d="M 209 253 L 230 253 L 230 273.667969 L 209 273.667969 Z M 209 253 " clip-rule="nonzero"/></clipPath><clipPath id="13fc9e53f2"><path d="M 99.765625 154 L 144 154 L 144 206 L 99.765625 206 Z M 99.765625 154 " clip-rule="nonzero"/></clipPath></defs><path fill="#ffde59" d="M 164.722656 139.824219 C 164.488281 139.824219 164.253906 139.789062 164.023438 139.710938 L 154.296875 136.550781 C 153.613281 136.328125 153.070312 135.789062 152.84375 135.105469 C 151.152344 129.964844 151.25 124.179688 153.101562 119.230469 C 155.898438 111.769531 162.628906 105.707031 170.675781 103.398438 C 178.203125 101.242188 186.738281 102.261719 194.078125 106.199219 C 195.175781 106.789062 195.589844 108.160156 195.003906 109.257812 C 194.414062 110.355469 193.042969 110.769531 191.945312 110.179688 C 185.628906 106.792969 178.332031 105.90625 171.917969 107.746094 C 165.222656 109.664062 159.632812 114.671875 157.332031 120.816406 C 155.957031 124.476562 155.777344 128.71875 156.816406 132.613281 L 164.332031 135.058594 L 166.644531 133.410156 C 167.449219 132.832031 167.992188 131.976562 168.167969 131.003906 L 170.316406 118.855469 C 170.496094 117.835938 171.347656 117.070312 172.378906 116.996094 C 173.410156 116.917969 174.359375 117.554688 174.683594 118.535156 L 174.773438 118.8125 C 174.988281 119.453125 174.898438 120.121094 174.585938 120.664062 L 172.613281 131.792969 C 172.234375 133.941406 171.046875 135.824219 169.265625 137.09375 L 166.027344 139.402344 C 165.640625 139.675781 165.183594 139.824219 164.71875 139.824219 Z M 164.722656 139.824219 " fill-opacity="1" fill-rule="nonzero"/><g clip-path="url(#802bcf078c)"><path fill="#ffde59" d="M 141.007812 203.160156 C 140.429688 203.160156 139.851562 202.941406 139.410156 202.5 C 138.523438 201.621094 138.523438 200.1875 139.410156 199.300781 L 160.617188 178.042969 C 163.648438 175.003906 165.144531 170.832031 164.71875 166.597656 C 164.300781 162.476562 164.023438 156.550781 166.347656 152.738281 C 168.101562 149.859375 170.757812 148.066406 173.335938 146.335938 C 174.976562 145.230469 176.523438 144.191406 177.765625 142.925781 C 181.046875 139.566406 182.238281 134.441406 182.972656 129.871094 C 183.097656 129.121094 183.207031 128.363281 183.320312 127.601562 C 184.007812 123.039062 184.714844 118.316406 186.988281 114.039062 C 189.507812 109.296875 193.804688 105.480469 199.078125 103.296875 C 203.886719 101.308594 209.371094 100.707031 214.957031 101.550781 C 221.945312 102.613281 228.132812 105.839844 232.382812 110.640625 C 237.078125 115.9375 239.175781 123.25 237.867188 129.71875 C 237.066406 133.683594 235.082031 136.867188 232.285156 138.679688 C 229.425781 140.527344 226.050781 140.785156 223.078125 141.015625 C 222.695312 141.042969 222.316406 141.070312 221.941406 141.105469 C 219.828125 141.285156 217.671875 141.441406 215.8125 141.570312 L 215.394531 141.601562 C 213.277344 141.765625 210.085938 142.007812 207.972656 138.964844 C 206.734375 137.183594 206.40625 134.894531 207.066406 132.683594 C 207.804688 130.210938 211.101562 127.015625 215.34375 123.101562 C 216.460938 122.066406 217.527344 121.085938 218.03125 120.53125 C 218.097656 120.457031 218.164062 120.382812 218.234375 120.3125 C 218.429688 119.949219 218.714844 119.652344 219.050781 119.449219 C 219.167969 119.332031 219.273438 119.226562 219.371094 119.136719 C 220.949219 117.652344 222.21875 118.324219 222.695312 118.6875 C 223.324219 119.164062 224.117188 120.394531 223.117188 121.992188 C 222.320312 123.257812 221.546875 123.878906 220.859375 124.113281 C 220.226562 124.753906 219.371094 125.542969 218.417969 126.421875 C 216.285156 128.394531 211.84375 132.496094 211.398438 133.980469 C 211.136719 134.855469 211.25 135.75 211.691406 136.390625 C 212.242188 137.179688 212.972656 137.257812 215.058594 137.09375 L 215.503906 137.0625 C 217.34375 136.933594 219.480469 136.78125 221.558594 136.601562 C 221.945312 136.570312 222.335938 136.539062 222.734375 136.507812 C 225.292969 136.3125 227.941406 136.109375 229.835938 134.882812 C 231.578125 133.757812 232.894531 131.546875 233.449219 128.824219 C 234.480469 123.714844 232.78125 117.898438 229.007812 113.636719 C 225.457031 109.625 220.226562 106.921875 214.285156 106.019531 C 209.519531 105.296875 204.859375 105.796875 200.816406 107.46875 C 196.503906 109.257812 193.015625 112.34375 190.988281 116.15625 C 189.078125 119.75 188.457031 123.890625 187.800781 128.269531 C 187.683594 129.042969 187.570312 129.816406 187.449219 130.582031 C 186.601562 135.851562 185.175781 141.816406 181.007812 146.078125 C 179.445312 147.679688 177.625 148.902344 175.867188 150.082031 C 173.597656 151.605469 171.453125 153.042969 170.214844 155.082031 C 168.414062 158.046875 169.023438 164.136719 169.226562 166.144531 C 169.785156 171.734375 167.820312 177.238281 163.828125 181.234375 L 142.617188 202.496094 C 142.175781 202.9375 141.597656 203.160156 141.015625 203.160156 Z M 141.007812 203.160156 " fill-opacity="1" fill-rule="nonzero"/></g><path fill="#ffde59" d="M 161.179688 208 C 161.179688 208 161.160156 208 161.148438 208 C 159.902344 207.984375 158.902344 206.964844 158.914062 205.714844 L 158.988281 199.402344 C 159.015625 197.214844 159.929688 195.085938 161.496094 193.5625 L 174.488281 180.921875 C 175.222656 180.210938 175.636719 179.21875 175.632812 178.195312 L 175.546875 165.445312 C 175.53125 163.128906 176.496094 160.894531 178.191406 159.324219 L 195.707031 143.027344 C 196.480469 142.308594 196.917969 141.289062 196.914062 140.238281 L 196.8125 128.542969 C 196.796875 126.601562 197.46875 124.707031 198.699219 123.207031 L 204.148438 116.585938 C 204.941406 115.625 206.367188 115.484375 207.328125 116.28125 C 208.292969 117.074219 208.433594 118.496094 207.636719 119.460938 L 202.1875 126.078125 C 201.628906 126.761719 201.320312 127.625 201.332031 128.503906 L 201.433594 140.199219 C 201.453125 142.523438 200.492188 144.757812 198.789062 146.335938 L 181.269531 162.632812 C 180.5 163.347656 180.0625 164.363281 180.066406 165.414062 L 180.152344 178.167969 C 180.167969 180.414062 179.25 182.597656 177.640625 184.160156 L 164.648438 196.800781 C 163.925781 197.503906 163.523438 198.445312 163.507812 199.453125 L 163.433594 205.765625 C 163.417969 207.003906 162.410156 208 161.179688 208 Z M 161.179688 208 " fill-opacity="1" fill-rule="nonzero"/><path fill="#ffde59" d="M 127.292969 191.84375 C 125.074219 191.84375 122.910156 190.933594 121.359375 189.34375 L 113.773438 181.578125 C 112.898438 180.6875 112.914062 179.253906 113.8125 178.378906 C 114.703125 177.507812 116.136719 177.523438 117.007812 178.417969 L 124.597656 186.1875 C 125.304688 186.910156 126.28125 187.324219 127.292969 187.324219 L 127.300781 187.324219 L 134.253906 187.300781 C 135.226562 187.300781 136.144531 186.925781 136.851562 186.253906 L 151.558594 172.148438 C 152.3125 171.417969 152.738281 170.40625 152.714844 169.351562 L 152.488281 157.570312 C 152.46875 156.625 152.09375 155.722656 151.445312 155.039062 L 142.058594 145.226562 C 140.699219 143.796875 139.886719 141.945312 139.773438 140 C 139.628906 137.386719 139.632812 134.738281 139.800781 132.128906 C 139.878906 130.882812 140.957031 129.9375 142.203125 130.015625 C 143.449219 130.09375 144.394531 131.171875 144.316406 132.417969 C 144.160156 134.851562 144.152344 137.3125 144.289062 139.75 C 144.339844 140.617188 144.707031 141.457031 145.324219 142.101562 L 154.710938 151.914062 C 156.148438 153.417969 156.964844 155.398438 157.003906 157.480469 L 157.234375 169.261719 C 157.28125 171.570312 156.351562 173.808594 154.6875 175.40625 L 139.980469 189.511719 C 138.433594 190.992188 136.410156 191.816406 134.269531 191.820312 L 127.320312 191.84375 Z M 127.292969 191.84375 " fill-opacity="1" fill-rule="nonzero"/><path fill="#ffde59" d="M 131.898438 178.832031 C 129.742188 178.832031 127.589844 178 125.96875 176.339844 L 112.519531 162.566406 C 109.273438 159.546875 107.632812 154.8125 108.121094 149.890625 C 108.515625 145.925781 110.203125 141.917969 113.140625 137.96875 C 116.925781 132.890625 121.785156 129.164062 127.195312 127.195312 C 127.46875 127.09375 127.757812 127.046875 128.035156 127.058594 C 128.757812 125.480469 129.644531 123.972656 130.683594 122.574219 C 136.457031 114.816406 146.722656 110.820312 156.222656 112.617188 C 157.449219 112.847656 158.253906 114.035156 158.019531 115.253906 C 157.789062 116.480469 156.601562 117.289062 155.375 117.058594 C 147.535156 115.574219 139.066406 118.878906 134.300781 125.273438 C 129.535156 131.675781 128.796875 140.730469 132.464844 147.820312 C 134.929688 152.585938 139.125 156.34375 143.183594 159.976562 C 143.203125 159.996094 143.222656 160.011719 143.242188 160.035156 C 143.46875 160.253906 143.6875 160.507812 143.90625 160.816406 C 146.214844 164.058594 145.761719 168.640625 142.855469 171.464844 L 137.664062 176.503906 C 136.054688 178.0625 133.972656 178.839844 131.894531 178.839844 Z M 126.238281 132.53125 C 122.652344 134.339844 119.417969 137.113281 116.761719 140.675781 C 114.320312 143.949219 112.925781 147.203125 112.617188 150.339844 C 112.269531 153.828125 113.425781 157.257812 115.625 159.289062 C 115.652344 159.316406 115.683594 159.34375 115.710938 159.371094 L 129.199219 173.1875 C 130.644531 174.671875 133.035156 174.699219 134.519531 173.261719 L 139.710938 168.222656 C 141.035156 166.9375 141.257812 164.882812 140.226562 163.4375 C 140.175781 163.367188 140.136719 163.320312 140.121094 163.304688 C 135.976562 159.589844 131.289062 155.378906 128.457031 149.902344 C 125.707031 144.589844 125 138.355469 126.234375 132.535156 Z M 126.238281 132.53125 " fill-opacity="1" fill-rule="nonzero"/><path fill="#ffde59" d="M 132.414062 168.253906 C 131.851562 168.253906 131.289062 168.046875 130.847656 167.621094 C 127.15625 164.078125 123.582031 160.324219 120.230469 156.464844 C 119.410156 155.527344 119.507812 154.097656 120.449219 153.28125 C 121.386719 152.460938 122.816406 152.558594 123.632812 153.5 C 126.90625 157.257812 130.382812 160.914062 133.976562 164.363281 C 134.878906 165.226562 134.90625 166.660156 134.039062 167.558594 C 133.597656 168.019531 133.003906 168.253906 132.410156 168.253906 Z M 132.414062 168.253906 " fill-opacity="1" fill-rule="nonzero"/><path fill="#ffde59" d="M 205.992188 201.210938 C 203.972656 201.210938 202.035156 200.484375 200.519531 199.144531 L 190.332031 190.175781 C 188.445312 188.511719 187.425781 186.121094 187.527344 183.609375 L 188.136719 168.910156 C 188.222656 166.90625 189.027344 165.007812 190.40625 163.550781 L 205.011719 148.148438 C 206.574219 146.503906 208.757812 145.570312 211.023438 145.570312 C 211.058594 145.570312 211.09375 145.570312 211.125 145.570312 L 229.644531 145.796875 L 229.691406 145.796875 C 230.742188 145.796875 231.75 145.355469 232.46875 144.578125 L 242.863281 133.253906 C 243.707031 132.335938 245.136719 132.273438 246.054688 133.121094 C 246.972656 133.964844 247.035156 135.394531 246.1875 136.3125 L 235.792969 147.636719 C 234.203125 149.371094 231.953125 150.355469 229.589844 150.316406 L 211.070312 150.085938 L 211.023438 150.085938 C 209.996094 150.085938 208.996094 150.511719 208.292969 151.265625 L 193.6875 166.664062 C 193.058594 167.324219 192.695312 168.191406 192.65625 169.101562 L 192.046875 183.800781 C 192 184.941406 192.464844 186.03125 193.324219 186.785156 L 203.507812 195.757812 C 204.230469 196.390625 205.152344 196.726562 206.113281 196.691406 L 223.144531 196.175781 C 224.308594 196.144531 225.367188 195.582031 226.0625 194.648438 L 226.460938 194.109375 C 228.105469 191.882812 230.75 190.628906 233.515625 190.757812 L 252.875 191.667969 C 254.125 191.726562 255.085938 192.785156 255.027344 194.03125 C 254.96875 195.28125 253.917969 196.246094 252.664062 196.183594 L 233.300781 195.269531 C 232.042969 195.207031 230.84375 195.78125 230.09375 196.792969 L 229.695312 197.332031 C 228.179688 199.386719 225.835938 200.613281 223.285156 200.691406 L 206.253906 201.207031 C 206.167969 201.207031 206.078125 201.207031 205.996094 201.207031 Z M 205.992188 201.210938 " fill-opacity="1" fill-rule="nonzero"/><g clip-path="url(#3a45782e6e)"><path fill="#ffde59" d="M 256.84375 195.8125 C 256.351562 195.8125 255.859375 195.65625 255.445312 195.324219 C 254.464844 194.554688 254.304688 193.128906 255.074219 192.152344 L 269.523438 173.910156 C 269.90625 173.429688 270.15625 172.878906 270.265625 172.320312 C 271.132812 167.695312 270.734375 162.929688 269.109375 158.539062 C 267.335938 153.746094 264.0625 149.464844 259.910156 146.492188 C 258.894531 145.765625 258.660156 144.351562 259.382812 143.339844 C 260.109375 142.324219 261.523438 142.089844 262.535156 142.8125 C 267.425781 146.308594 271.261719 151.332031 273.347656 156.964844 C 275.257812 162.121094 275.730469 167.722656 274.710938 173.148438 C 274.46875 174.425781 273.902344 175.65625 273.070312 176.707031 L 258.621094 194.945312 C 258.171875 195.511719 257.511719 195.800781 256.84375 195.800781 Z M 256.84375 195.8125 " fill-opacity="1" fill-rule="nonzero"/></g><path fill="#ffde59" d="M 244.21875 184.476562 L 236.386719 184.476562 C 231.820312 184.476562 228.101562 180.761719 228.101562 176.191406 L 228.101562 174.660156 C 228.101562 170.089844 231.820312 166.375 236.386719 166.375 L 242.390625 166.375 C 243.371094 166.375 244.308594 165.996094 245.019531 165.308594 C 249.191406 161.28125 253.828125 156.5 256.039062 150.710938 C 258.605469 143.996094 257.6875 136.132812 253.648438 130.191406 C 249.609375 124.25 242.636719 120.496094 235.453125 120.40625 C 234.203125 120.390625 233.207031 119.363281 233.222656 118.121094 C 233.242188 116.882812 234.25 115.886719 235.480469 115.886719 C 235.492188 115.886719 235.496094 115.886719 235.507812 115.886719 C 244.148438 115.992188 252.527344 120.503906 257.382812 127.648438 C 262.238281 134.792969 263.34375 144.246094 260.257812 152.316406 C 257.714844 158.976562 252.671875 164.1875 248.152344 168.558594 C 246.597656 170.058594 244.546875 170.886719 242.390625 170.886719 L 236.386719 170.886719 C 234.3125 170.886719 232.621094 172.578125 232.621094 174.65625 L 232.621094 176.183594 C 232.621094 178.261719 234.3125 179.953125 236.386719 179.953125 L 244.21875 179.953125 C 245.226562 179.953125 246.171875 179.5625 246.882812 178.851562 L 259.683594 166.046875 C 260.570312 165.167969 261.996094 165.167969 262.882812 166.046875 C 263.765625 166.933594 263.765625 168.359375 262.882812 169.246094 L 250.082031 182.046875 C 248.519531 183.609375 246.433594 184.472656 244.222656 184.472656 Z M 244.21875 184.476562 " fill-opacity="1" fill-rule="nonzero"/><path fill="#ffde59" d="M 216.664062 191.339844 C 216.625 191.339844 216.585938 191.339844 216.542969 191.339844 L 211.609375 191.074219 C 209.585938 190.96875 207.683594 190.125 206.238281 188.707031 L 199.980469 182.546875 C 198.15625 180.75 197.253906 178.15625 197.574219 175.613281 L 197.8125 173.699219 C 198.03125 171.945312 198.789062 170.332031 200.003906 169.042969 L 207.960938 160.59375 C 209.585938 158.863281 211.882812 157.921875 214.257812 157.988281 L 236.03125 158.667969 C 237.144531 158.707031 238.207031 158.246094 238.953125 157.417969 L 243.746094 152.066406 C 244.582031 151.136719 246.007812 151.054688 246.9375 151.890625 C 247.867188 152.726562 247.945312 154.152344 247.113281 155.082031 L 242.320312 160.4375 C 240.683594 162.261719 238.335938 163.257812 235.890625 163.191406 L 214.117188 162.515625 C 213.035156 162.480469 211.992188 162.914062 211.253906 163.695312 L 203.296875 172.148438 C 202.746094 172.734375 202.402344 173.464844 202.300781 174.265625 L 202.058594 176.179688 C 201.914062 177.332031 202.324219 178.515625 203.15625 179.332031 L 209.414062 185.492188 C 210.066406 186.136719 210.933594 186.523438 211.855469 186.566406 L 214.429688 186.707031 L 214.558594 174.953125 C 214.570312 173.703125 215.582031 172.703125 216.84375 172.71875 C 218.09375 172.730469 219.089844 173.753906 219.078125 175.003906 L 218.921875 188.957031 L 218.921875 189.085938 C 218.921875 189.710938 218.664062 190.300781 218.214844 190.726562 C 217.796875 191.125 217.234375 191.351562 216.660156 191.351562 Z M 216.664062 191.339844 " fill-opacity="1" fill-rule="nonzero"/><path fill="#ffde59" d="M 219.480469 214.816406 C 217.304688 214.816406 215.128906 213.957031 213.507812 212.277344 L 212.839844 211.582031 C 212.105469 210.820312 211.082031 210.394531 210.027344 210.429688 L 195.058594 210.804688 C 192.976562 210.855469 190.964844 210.132812 189.398438 208.761719 L 179.921875 200.488281 C 178.980469 199.667969 178.886719 198.242188 179.703125 197.304688 C 180.527344 196.363281 181.953125 196.265625 182.890625 197.085938 L 192.363281 205.355469 C 193.078125 205.976562 193.988281 206.320312 194.9375 206.285156 L 209.898438 205.910156 C 212.222656 205.855469 214.46875 206.777344 216.078125 208.445312 L 216.742188 209.140625 C 218.125 210.582031 220.398438 210.6875 221.910156 209.382812 L 223.671875 207.871094 C 225.199219 206.558594 227.148438 205.832031 229.160156 205.867188 L 243.082031 206.011719 C 244.328125 206.023438 245.332031 207.046875 245.316406 208.296875 C 245.304688 209.535156 244.289062 210.53125 243.058594 210.53125 L 243.035156 210.53125 L 229.113281 210.386719 C 229.113281 210.386719 229.085938 210.386719 229.074219 210.386719 C 228.171875 210.386719 227.304688 210.710938 226.617188 211.296875 L 224.859375 212.808594 C 223.300781 214.152344 221.375 214.816406 219.453125 214.816406 Z M 219.480469 214.816406 " fill-opacity="1" fill-rule="nonzero"/><g clip-path="url(#93d5cedf7d)"><path fill="#ffde59" d="M 226.46875 256.257812 C 226.324219 256.117188 226.179688 255.988281 226.023438 255.859375 C 224.777344 254.828125 223.3125 254.117188 221.75 253.769531 L 221.75 258.492188 C 222.238281 258.699219 222.695312 258.972656 223.121094 259.320312 C 223.132812 259.332031 223.144531 259.335938 223.15625 259.347656 C 224.441406 260.421875 225.1875 261.996094 225.1875 263.671875 C 225.1875 264.613281 224.964844 265.5 224.527344 266.3125 C 224.519531 266.324219 224.515625 266.335938 224.511719 266.347656 C 223.523438 268.167969 221.625 269.292969 219.558594 269.292969 C 216.457031 269.292969 213.9375 266.773438 213.9375 263.671875 C 213.9375 263.402344 213.953125 263.136719 213.992188 262.871094 C 214.1875 261.46875 214.90625 260.210938 216.007812 259.308594 C 216.019531 259.300781 216.027344 259.296875 216.039062 259.292969 C 216.511719 258.90625 217.035156 258.609375 217.589844 258.402344 L 217.589844 253.726562 C 217.589844 253.726562 217.589844 253.726562 217.582031 253.726562 C 215.988281 254.039062 214.476562 254.742188 213.203125 255.769531 C 213.0625 255.886719 212.917969 256.003906 212.785156 256.132812 C 211.007812 257.722656 209.855469 259.875 209.523438 262.21875 C 209.453125 262.683594 209.417969 263.179688 209.417969 263.671875 C 209.417969 269.265625 213.964844 273.8125 219.558594 273.8125 C 223.277344 273.8125 226.695312 271.78125 228.476562 268.515625 C 228.492188 268.492188 228.503906 268.464844 228.515625 268.441406 C 229.292969 266.984375 229.707031 265.332031 229.707031 263.671875 C 229.707031 260.835938 228.535156 258.171875 226.476562 256.25 Z M 226.46875 256.257812 " fill-opacity="1" fill-rule="nonzero"/></g><path fill="#ffde59" d="M 217.570312 253.730469 C 217.558594 251.027344 217.53125 245.902344 217.472656 241.355469 C 217.429688 238.660156 217.390625 236.53125 217.347656 235.019531 C 217.28125 232.941406 217.253906 231.902344 216.886719 231.222656 C 215.375 227.617188 211.605469 223.113281 208.660156 219.9375 C 207.09375 218.253906 204.882812 217.285156 202.585938 217.285156 L 166.0625 217.285156 C 162.695312 217.285156 159.351562 216.421875 156.382812 214.792969 C 153.683594 213.308594 151.644531 211.964844 150.488281 210.910156 C 147.105469 207.824219 145.09375 204 144.960938 200.429688 C 144.910156 199.179688 143.863281 198.222656 142.613281 198.25 C 141.363281 198.300781 140.390625 199.347656 140.433594 200.597656 C 140.621094 205.445312 143.101562 210.296875 147.433594 214.253906 C 148.867188 215.558594 151.140625 217.078125 154.195312 218.75 C 157.824219 220.75 161.921875 221.804688 166.050781 221.804688 L 202.574219 221.804688 C 203.617188 221.804688 204.625 222.242188 205.335938 223.011719 C 209.085938 227.0625 211.765625 230.6875 212.714844 233 C 212.867188 234.59375 212.996094 243.144531 213.046875 254.675781 C 213.046875 255.179688 212.953125 255.679688 212.761719 256.136719 C 212.714844 256.25 212.664062 256.363281 212.605469 256.46875 C 212.015625 257.570312 212.425781 258.9375 213.527344 259.527344 C 213.871094 259.707031 214.234375 259.796875 214.59375 259.796875 C 215.097656 259.796875 215.589844 259.628906 215.992188 259.3125 C 216.003906 259.308594 216.007812 259.300781 216.019531 259.296875 C 216.25 259.113281 216.445312 258.882812 216.589844 258.609375 C 217.230469 257.414062 217.570312 256.066406 217.570312 254.714844 L 217.570312 254.660156 C 217.570312 254.398438 217.570312 254.089844 217.566406 253.734375 Z M 217.570312 253.730469 " fill-opacity="1" fill-rule="nonzero"/><path fill="#ffde59" d="M 272.261719 178.222656 C 271.777344 177.074219 270.449219 176.542969 269.300781 177.03125 C 268.152344 177.515625 267.621094 178.84375 268.109375 179.992188 C 270.65625 185.996094 270.65625 193.175781 268.097656 199.695312 C 265.695312 205.792969 261.074219 211.292969 255.074219 215.171875 C 249.632812 218.695312 242.933594 220.992188 235.683594 221.808594 C 235.605469 221.820312 235.507812 221.820312 235.367188 221.824219 C 231.761719 221.925781 228.714844 223.085938 226.324219 225.277344 C 225.171875 226.335938 224.207031 227.570312 223.480469 228.9375 C 222.75 230.304688 222.246094 231.800781 222.011719 233.34375 C 221.894531 234.175781 221.78125 237.203125 221.75 253.773438 C 221.75 254.199219 221.75 254.632812 221.75 255.070312 L 221.75 255.089844 C 221.75 256.285156 222.011719 257.460938 222.539062 258.570312 C 222.679688 258.871094 222.878906 259.125 223.121094 259.324219 C 223.132812 259.335938 223.144531 259.339844 223.15625 259.351562 C 223.558594 259.683594 224.066406 259.863281 224.589844 259.863281 C 224.914062 259.863281 225.238281 259.789062 225.550781 259.644531 C 226.675781 259.105469 227.160156 257.761719 226.628906 256.632812 C 226.570312 256.507812 226.515625 256.386719 226.46875 256.257812 C 226.335938 255.871094 226.261719 255.476562 226.269531 255.074219 C 226.296875 237.558594 226.425781 234.589844 226.46875 234.097656 C 226.476562 234.074219 226.480469 234.046875 226.480469 234.023438 C 226.796875 231.972656 227.847656 229.996094 229.375 228.601562 C 230.96875 227.144531 232.972656 226.402344 235.46875 226.335938 C 235.753906 226.328125 236.007812 226.3125 236.21875 226.285156 C 244.132812 225.386719 251.496094 222.855469 257.527344 218.953125 C 264.3125 214.558594 269.558594 208.300781 272.300781 201.335938 C 275.285156 193.730469 275.277344 185.300781 272.261719 178.210938 Z M 272.261719 178.222656 " fill-opacity="1" fill-rule="nonzero"/><g clip-path="url(#13fc9e53f2)"><path fill="#ffde59" d="M 127.246094 205.035156 C 122.375 205.035156 117.625 204.214844 113.246094 201.851562 C 105.585938 197.722656 100.445312 189.226562 99.828125 179.667969 C 99.308594 171.5625 101.996094 162.804688 107.394531 155 C 108.105469 153.972656 109.511719 153.714844 110.535156 154.429688 C 111.558594 155.140625 111.816406 156.542969 111.105469 157.570312 C 106.277344 164.542969 103.875 172.28125 104.335938 179.375 C 104.84375 187.265625 109.179688 194.53125 115.386719 197.875 C 122.84375 201.894531 132.207031 200.550781 141.15625 198.835938 C 142.382812 198.601562 143.566406 199.402344 143.800781 200.628906 C 144.035156 201.855469 143.234375 203.039062 142.007812 203.273438 C 137.128906 204.207031 132.125 205.035156 127.246094 205.035156 Z M 127.246094 205.035156 " fill-opacity="1" fill-rule="nonzero"/></g><path fill="#ffde59" d="M 248.136719 207.871094 C 248.136719 208.195312 248.105469 208.519531 248.042969 208.839844 C 247.976562 209.15625 247.882812 209.46875 247.757812 209.769531 C 247.636719 210.070312 247.480469 210.355469 247.300781 210.628906 C 247.121094 210.898438 246.914062 211.148438 246.683594 211.378906 C 246.453125 211.609375 246.203125 211.816406 245.933594 211.996094 C 245.660156 212.175781 245.375 212.328125 245.074219 212.453125 C 244.773438 212.578125 244.464844 212.671875 244.144531 212.738281 C 243.824219 212.800781 243.5 212.832031 243.175781 212.832031 C 242.851562 212.832031 242.527344 212.800781 242.207031 212.738281 C 241.886719 212.671875 241.578125 212.578125 241.277344 212.453125 C 240.976562 212.328125 240.691406 212.175781 240.417969 211.996094 C 240.148438 211.816406 239.898438 211.609375 239.667969 211.378906 C 239.4375 211.148438 239.230469 210.898438 239.050781 210.628906 C 238.867188 210.355469 238.714844 210.070312 238.589844 209.769531 C 238.46875 209.46875 238.371094 209.15625 238.308594 208.839844 C 238.246094 208.519531 238.214844 208.195312 238.214844 207.871094 C 238.214844 207.542969 238.246094 207.222656 238.308594 206.902344 C 238.371094 206.582031 238.46875 206.273438 238.589844 205.972656 C 238.714844 205.671875 238.867188 205.382812 239.050781 205.113281 C 239.230469 204.84375 239.4375 204.59375 239.667969 204.363281 C 239.898438 204.132812 240.148438 203.925781 240.417969 203.746094 C 240.691406 203.5625 240.976562 203.410156 241.277344 203.285156 C 241.578125 203.160156 241.886719 203.066406 242.207031 203.003906 C 242.527344 202.941406 242.851562 202.910156 243.175781 202.910156 C 243.5 202.910156 243.824219 202.941406 244.144531 203.003906 C 244.464844 203.066406 244.773438 203.160156 245.074219 203.285156 C 245.375 203.410156 245.660156 203.5625 245.933594 203.746094 C 246.203125 203.925781 246.453125 204.132812 246.683594 204.363281 C 246.914062 204.59375 247.121094 204.84375 247.300781 205.113281 C 247.480469 205.382812 247.636719 205.671875 247.757812 205.972656 C 247.882812 206.273438 247.976562 206.582031 248.042969 206.902344 C 248.105469 207.222656 248.136719 207.542969 248.136719 207.871094 Z M 248.136719 207.871094 " fill-opacity="1" fill-rule="nonzero"/><path fill="#ffde59" d="M 267.84375 166.054688 C 267.84375 166.378906 267.8125 166.703125 267.75 167.023438 C 267.683594 167.339844 267.589844 167.652344 267.464844 167.953125 C 267.34375 168.253906 267.1875 168.539062 267.007812 168.808594 C 266.828125 169.082031 266.621094 169.332031 266.390625 169.5625 C 266.160156 169.792969 265.910156 170 265.640625 170.179688 C 265.367188 170.359375 265.082031 170.511719 264.78125 170.636719 C 264.480469 170.761719 264.171875 170.855469 263.851562 170.921875 C 263.53125 170.984375 263.207031 171.015625 262.882812 171.015625 C 262.558594 171.015625 262.234375 170.984375 261.914062 170.921875 C 261.59375 170.855469 261.285156 170.761719 260.984375 170.636719 C 260.683594 170.511719 260.398438 170.359375 260.125 170.179688 C 259.855469 170 259.605469 169.792969 259.375 169.5625 C 259.144531 169.332031 258.9375 169.082031 258.757812 168.808594 C 258.574219 168.539062 258.421875 168.253906 258.296875 167.953125 C 258.175781 167.652344 258.078125 167.339844 258.015625 167.023438 C 257.953125 166.703125 257.921875 166.378906 257.921875 166.054688 C 257.921875 165.726562 257.953125 165.40625 258.015625 165.085938 C 258.078125 164.765625 258.175781 164.457031 258.296875 164.15625 C 258.421875 163.855469 258.574219 163.566406 258.757812 163.296875 C 258.9375 163.027344 259.144531 162.777344 259.375 162.546875 C 259.605469 162.316406 259.855469 162.109375 260.125 161.929688 C 260.398438 161.746094 260.683594 161.59375 260.984375 161.46875 C 261.285156 161.34375 261.59375 161.25 261.914062 161.1875 C 262.234375 161.125 262.558594 161.09375 262.882812 161.09375 C 263.207031 161.09375 263.53125 161.125 263.851562 161.1875 C 264.171875 161.25 264.480469 161.34375 264.78125 161.46875 C 265.082031 161.59375 265.367188 161.746094 265.640625 161.929688 C 265.910156 162.109375 266.160156 162.316406 266.390625 162.546875 C 266.621094 162.777344 266.828125 163.027344 267.007812 163.296875 C 267.1875 163.566406 267.34375 163.855469 267.464844 164.15625 C 267.589844 164.457031 267.683594 164.765625 267.75 165.085938 C 267.8125 165.40625 267.84375 165.726562 267.84375 166.054688 Z M 267.84375 166.054688 " fill-opacity="1" fill-rule="nonzero"/><path fill="#ffde59" d="M 251.894531 151.886719 C 251.894531 152.210938 251.863281 152.535156 251.800781 152.851562 C 251.734375 153.171875 251.640625 153.484375 251.515625 153.785156 C 251.394531 154.085938 251.238281 154.371094 251.058594 154.640625 C 250.878906 154.914062 250.671875 155.164062 250.441406 155.394531 C 250.210938 155.625 249.960938 155.828125 249.691406 156.011719 C 249.417969 156.191406 249.132812 156.34375 248.832031 156.46875 C 248.53125 156.59375 248.222656 156.6875 247.902344 156.75 C 247.582031 156.816406 247.257812 156.847656 246.933594 156.847656 C 246.609375 156.847656 246.285156 156.816406 245.964844 156.75 C 245.644531 156.6875 245.335938 156.59375 245.035156 156.46875 C 244.734375 156.34375 244.449219 156.191406 244.175781 156.011719 C 243.90625 155.828125 243.65625 155.625 243.425781 155.394531 C 243.195312 155.164062 242.988281 154.914062 242.808594 154.640625 C 242.625 154.371094 242.472656 154.085938 242.347656 153.785156 C 242.222656 153.484375 242.128906 153.171875 242.066406 152.851562 C 242.003906 152.535156 241.972656 152.210938 241.972656 151.886719 C 241.972656 151.558594 242.003906 151.238281 242.066406 150.917969 C 242.128906 150.597656 242.222656 150.289062 242.347656 149.988281 C 242.472656 149.6875 242.625 149.398438 242.808594 149.128906 C 242.988281 148.859375 243.195312 148.605469 243.425781 148.375 C 243.65625 148.148438 243.90625 147.941406 244.175781 147.761719 C 244.449219 147.578125 244.734375 147.425781 245.035156 147.300781 C 245.335938 147.175781 245.644531 147.082031 245.964844 147.019531 C 246.285156 146.957031 246.609375 146.921875 246.933594 146.921875 C 247.257812 146.921875 247.582031 146.957031 247.902344 147.019531 C 248.222656 147.082031 248.53125 147.175781 248.832031 147.300781 C 249.132812 147.425781 249.417969 147.578125 249.691406 147.761719 C 249.960938 147.941406 250.210938 148.148438 250.441406 148.375 C 250.671875 148.605469 250.878906 148.859375 251.058594 149.128906 C 251.238281 149.398438 251.394531 149.6875 251.515625 149.988281 C 251.640625 150.289062 251.734375 150.597656 251.800781 150.917969 C 251.863281 151.238281 251.894531 151.558594 251.894531 151.886719 Z M 251.894531 151.886719 " fill-opacity="1" fill-rule="nonzero"/><path fill="#ffde59" d="M 250.304688 133.800781 C 250.304688 134.128906 250.273438 134.449219 250.210938 134.769531 C 250.144531 135.089844 250.050781 135.398438 249.925781 135.703125 C 249.800781 136.003906 249.648438 136.289062 249.46875 136.558594 C 249.289062 136.828125 249.082031 137.082031 248.851562 137.3125 C 248.621094 137.542969 248.371094 137.746094 248.097656 137.929688 C 247.828125 138.109375 247.542969 138.261719 247.242188 138.386719 C 246.941406 138.511719 246.628906 138.605469 246.3125 138.667969 C 245.992188 138.730469 245.667969 138.765625 245.34375 138.765625 C 245.015625 138.765625 244.695312 138.730469 244.375 138.667969 C 244.054688 138.605469 243.746094 138.511719 243.445312 138.386719 C 243.144531 138.261719 242.855469 138.109375 242.585938 137.929688 C 242.316406 137.746094 242.066406 137.542969 241.835938 137.3125 C 241.605469 137.082031 241.398438 136.828125 241.21875 136.558594 C 241.035156 136.289062 240.882812 136.003906 240.757812 135.703125 C 240.632812 135.398438 240.539062 135.089844 240.476562 134.769531 C 240.414062 134.449219 240.382812 134.128906 240.382812 133.800781 C 240.382812 133.476562 240.414062 133.152344 240.476562 132.835938 C 240.539062 132.515625 240.632812 132.203125 240.757812 131.902344 C 240.882812 131.601562 241.035156 131.316406 241.21875 131.046875 C 241.398438 130.773438 241.605469 130.523438 241.835938 130.292969 C 242.066406 130.0625 242.316406 129.859375 242.585938 129.675781 C 242.855469 129.496094 243.144531 129.34375 243.445312 129.21875 C 243.746094 129.09375 244.054688 129 244.375 128.9375 C 244.695312 128.871094 245.015625 128.839844 245.34375 128.839844 C 245.667969 128.839844 245.992188 128.871094 246.3125 128.9375 C 246.628906 129 246.941406 129.09375 247.242188 129.21875 C 247.542969 129.34375 247.828125 129.496094 248.097656 129.675781 C 248.371094 129.859375 248.621094 130.0625 248.851562 130.292969 C 249.082031 130.523438 249.289062 130.773438 249.46875 131.046875 C 249.648438 131.316406 249.800781 131.601562 249.925781 131.902344 C 250.050781 132.203125 250.144531 132.515625 250.210938 132.835938 C 250.273438 133.152344 250.304688 133.476562 250.304688 133.800781 Z M 250.304688 133.800781 " fill-opacity="1" fill-rule="nonzero"/><path fill="#ffde59" d="M 222.167969 174.320312 C 222.167969 174.644531 222.136719 174.96875 222.074219 175.289062 C 222.011719 175.605469 221.917969 175.917969 221.792969 176.21875 C 221.667969 176.519531 221.515625 176.804688 221.332031 177.078125 C 221.152344 177.347656 220.945312 177.597656 220.714844 177.828125 C 220.484375 178.058594 220.234375 178.265625 219.964844 178.445312 C 219.691406 178.625 219.40625 178.777344 219.105469 178.902344 C 218.804688 179.027344 218.496094 179.121094 218.175781 179.1875 C 217.855469 179.25 217.535156 179.28125 217.207031 179.28125 C 216.882812 179.28125 216.558594 179.25 216.238281 179.1875 C 215.921875 179.121094 215.609375 179.027344 215.308594 178.902344 C 215.007812 178.777344 214.722656 178.625 214.449219 178.445312 C 214.179688 178.265625 213.929688 178.058594 213.699219 177.828125 C 213.46875 177.597656 213.261719 177.347656 213.082031 177.078125 C 212.902344 176.804688 212.75 176.519531 212.625 176.21875 C 212.5 175.917969 212.40625 175.605469 212.339844 175.289062 C 212.277344 174.96875 212.246094 174.644531 212.246094 174.320312 C 212.246094 173.992188 212.277344 173.671875 212.339844 173.351562 C 212.40625 173.03125 212.5 172.722656 212.625 172.421875 C 212.75 172.121094 212.902344 171.835938 213.082031 171.5625 C 213.261719 171.292969 213.46875 171.042969 213.699219 170.8125 C 213.929688 170.582031 214.179688 170.375 214.449219 170.195312 C 214.722656 170.011719 215.007812 169.859375 215.308594 169.734375 C 215.609375 169.609375 215.921875 169.515625 216.238281 169.453125 C 216.558594 169.390625 216.882812 169.359375 217.207031 169.359375 C 217.535156 169.359375 217.855469 169.390625 218.175781 169.453125 C 218.496094 169.515625 218.804688 169.609375 219.105469 169.734375 C 219.40625 169.859375 219.691406 170.011719 219.964844 170.195312 C 220.234375 170.375 220.484375 170.582031 220.714844 170.8125 C 220.945312 171.042969 221.152344 171.292969 221.332031 171.5625 C 221.515625 171.835938 221.667969 172.121094 221.792969 172.421875 C 221.917969 172.722656 222.011719 173.03125 222.074219 173.351562 C 222.136719 173.671875 222.167969 173.992188 222.167969 174.320312 Z M 222.167969 174.320312 " fill-opacity="1" fill-rule="nonzero"/><path fill="#ffde59" d="M 227.5625 120.71875 C 227.5625 121.046875 227.53125 121.367188 227.46875 121.6875 C 227.402344 122.007812 227.308594 122.316406 227.183594 122.621094 C 227.058594 122.921875 226.90625 123.207031 226.726562 123.476562 C 226.546875 123.746094 226.339844 124 226.109375 124.230469 C 225.878906 124.460938 225.628906 124.664062 225.355469 124.847656 C 225.085938 125.027344 224.800781 125.179688 224.5 125.304688 C 224.199219 125.429688 223.886719 125.523438 223.570312 125.585938 C 223.25 125.652344 222.925781 125.683594 222.601562 125.683594 C 222.273438 125.683594 221.953125 125.652344 221.632812 125.585938 C 221.3125 125.523438 221.003906 125.429688 220.703125 125.304688 C 220.402344 125.179688 220.113281 125.027344 219.84375 124.847656 C 219.574219 124.664062 219.324219 124.460938 219.09375 124.230469 C 218.863281 124 218.65625 123.746094 218.476562 123.476562 C 218.292969 123.207031 218.140625 122.921875 218.015625 122.621094 C 217.890625 122.316406 217.796875 122.007812 217.734375 121.6875 C 217.671875 121.367188 217.640625 121.046875 217.640625 120.71875 C 217.640625 120.394531 217.671875 120.070312 217.734375 119.753906 C 217.796875 119.433594 217.890625 119.121094 218.015625 118.820312 C 218.140625 118.519531 218.292969 118.234375 218.476562 117.964844 C 218.65625 117.691406 218.863281 117.441406 219.09375 117.210938 C 219.324219 116.980469 219.574219 116.777344 219.84375 116.59375 C 220.113281 116.414062 220.402344 116.261719 220.703125 116.136719 C 221.003906 116.011719 221.3125 115.917969 221.632812 115.855469 C 221.953125 115.789062 222.273438 115.757812 222.601562 115.757812 C 222.925781 115.757812 223.25 115.789062 223.570312 115.855469 C 223.886719 115.917969 224.199219 116.011719 224.5 116.136719 C 224.800781 116.261719 225.085938 116.414062 225.355469 116.59375 C 225.628906 116.777344 225.878906 116.980469 226.109375 117.210938 C 226.339844 117.441406 226.546875 117.691406 226.726562 117.964844 C 226.90625 118.234375 227.058594 118.519531 227.183594 118.820312 C 227.308594 119.121094 227.402344 119.433594 227.46875 119.753906 C 227.53125 120.070312 227.5625 120.394531 227.5625 120.71875 Z M 227.5625 120.71875 " fill-opacity="1" fill-rule="nonzero"/><path fill="#ffde59" d="M 211.421875 117.8125 C 211.421875 118.140625 211.390625 118.460938 211.328125 118.78125 C 211.265625 119.101562 211.167969 119.410156 211.046875 119.710938 C 210.921875 120.015625 210.765625 120.300781 210.585938 120.570312 C 210.40625 120.839844 210.199219 121.09375 209.96875 121.324219 C 209.738281 121.554688 209.488281 121.757812 209.21875 121.941406 C 208.945312 122.121094 208.660156 122.273438 208.359375 122.398438 C 208.058594 122.523438 207.75 122.617188 207.429688 122.679688 C 207.109375 122.742188 206.785156 122.777344 206.460938 122.777344 C 206.136719 122.777344 205.8125 122.742188 205.492188 122.679688 C 205.171875 122.617188 204.863281 122.523438 204.5625 122.398438 C 204.261719 122.273438 203.976562 122.121094 203.703125 121.941406 C 203.433594 121.757812 203.183594 121.554688 202.953125 121.324219 C 202.722656 121.09375 202.515625 120.839844 202.335938 120.570312 C 202.15625 120.300781 202 120.015625 201.875 119.710938 C 201.753906 119.410156 201.65625 119.101562 201.59375 118.78125 C 201.53125 118.460938 201.5 118.140625 201.5 117.8125 C 201.5 117.488281 201.53125 117.164062 201.59375 116.847656 C 201.65625 116.527344 201.753906 116.214844 201.875 115.914062 C 202 115.613281 202.15625 115.328125 202.335938 115.058594 C 202.515625 114.785156 202.722656 114.535156 202.953125 114.304688 C 203.183594 114.074219 203.433594 113.871094 203.703125 113.6875 C 203.976562 113.507812 204.261719 113.355469 204.5625 113.230469 C 204.863281 113.105469 205.171875 113.011719 205.492188 112.949219 C 205.8125 112.882812 206.136719 112.851562 206.460938 112.851562 C 206.785156 112.851562 207.109375 112.882812 207.429688 112.949219 C 207.75 113.011719 208.058594 113.105469 208.359375 113.230469 C 208.660156 113.355469 208.945312 113.507812 209.21875 113.6875 C 209.488281 113.871094 209.738281 114.074219 209.96875 114.304688 C 210.199219 114.535156 210.40625 114.785156 210.585938 115.058594 C 210.765625 115.328125 210.921875 115.613281 211.042969 115.914062 C 211.167969 116.214844 211.265625 116.527344 211.328125 116.847656 C 211.390625 117.164062 211.421875 117.488281 211.421875 117.8125 Z M 211.421875 117.8125 " fill-opacity="1" fill-rule="nonzero"/><path fill="#ffde59" d="M 177.84375 117.8125 C 177.84375 118.140625 177.8125 118.460938 177.75 118.78125 C 177.683594 119.101562 177.589844 119.410156 177.464844 119.710938 C 177.339844 120.015625 177.1875 120.300781 177.007812 120.570312 C 176.828125 120.839844 176.621094 121.09375 176.390625 121.324219 C 176.160156 121.554688 175.910156 121.757812 175.640625 121.941406 C 175.367188 122.121094 175.082031 122.273438 174.78125 122.398438 C 174.480469 122.523438 174.167969 122.617188 173.851562 122.679688 C 173.53125 122.742188 173.207031 122.777344 172.882812 122.777344 C 172.554688 122.777344 172.234375 122.742188 171.914062 122.679688 C 171.59375 122.617188 171.285156 122.523438 170.984375 122.398438 C 170.683594 122.273438 170.394531 122.121094 170.125 121.941406 C 169.855469 121.757812 169.605469 121.554688 169.375 121.324219 C 169.144531 121.09375 168.9375 120.839844 168.757812 120.570312 C 168.574219 120.300781 168.421875 120.015625 168.296875 119.710938 C 168.171875 119.410156 168.078125 119.101562 168.015625 118.78125 C 167.953125 118.460938 167.921875 118.140625 167.921875 117.8125 C 167.921875 117.488281 167.953125 117.164062 168.015625 116.847656 C 168.078125 116.527344 168.171875 116.214844 168.296875 115.914062 C 168.421875 115.613281 168.574219 115.328125 168.757812 115.058594 C 168.9375 114.785156 169.144531 114.535156 169.375 114.304688 C 169.605469 114.074219 169.855469 113.871094 170.125 113.6875 C 170.394531 113.507812 170.683594 113.355469 170.984375 113.230469 C 171.285156 113.105469 171.59375 113.011719 171.914062 112.949219 C 172.234375 112.882812 172.554688 112.851562 172.882812 112.851562 C 173.207031 112.851562 173.53125 112.882812 173.851562 112.949219 C 174.167969 113.011719 174.480469 113.105469 174.78125 113.230469 C 175.082031 113.355469 175.367188 113.507812 175.640625 113.6875 C 175.910156 113.871094 176.160156 114.074219 176.390625 114.304688 C 176.621094 114.535156 176.828125 114.785156 177.007812 115.058594 C 177.1875 115.328125 177.339844 115.613281 177.464844 115.914062 C 177.589844 116.214844 177.683594 116.527344 177.75 116.847656 C 177.8125 117.164062 177.84375 117.488281 177.84375 117.8125 Z M 177.84375 117.8125 " fill-opacity="1" fill-rule="nonzero"/><path fill="#ffde59" d="M 147.160156 130.023438 C 147.160156 130.347656 147.128906 130.671875 147.066406 130.992188 C 147 131.308594 146.90625 131.621094 146.78125 131.921875 C 146.65625 132.222656 146.503906 132.507812 146.324219 132.777344 C 146.144531 133.050781 145.9375 133.300781 145.707031 133.53125 C 145.476562 133.761719 145.226562 133.96875 144.957031 134.148438 C 144.683594 134.328125 144.398438 134.480469 144.097656 134.605469 C 143.796875 134.730469 143.484375 134.824219 143.167969 134.890625 C 142.847656 134.953125 142.523438 134.984375 142.199219 134.984375 C 141.871094 134.984375 141.550781 134.953125 141.230469 134.890625 C 140.910156 134.824219 140.601562 134.730469 140.300781 134.605469 C 140 134.480469 139.714844 134.328125 139.441406 134.148438 C 139.171875 133.96875 138.921875 133.761719 138.691406 133.53125 C 138.460938 133.300781 138.253906 133.050781 138.074219 132.777344 C 137.890625 132.507812 137.738281 132.222656 137.613281 131.921875 C 137.488281 131.621094 137.394531 131.308594 137.332031 130.992188 C 137.269531 130.671875 137.238281 130.347656 137.238281 130.023438 C 137.238281 129.695312 137.269531 129.375 137.332031 129.054688 C 137.394531 128.734375 137.488281 128.425781 137.613281 128.125 C 137.738281 127.824219 137.890625 127.535156 138.074219 127.265625 C 138.253906 126.996094 138.460938 126.746094 138.691406 126.515625 C 138.921875 126.285156 139.171875 126.078125 139.441406 125.898438 C 139.714844 125.714844 140 125.5625 140.300781 125.4375 C 140.601562 125.3125 140.910156 125.21875 141.230469 125.15625 C 141.550781 125.09375 141.871094 125.0625 142.199219 125.0625 C 142.523438 125.0625 142.847656 125.09375 143.167969 125.15625 C 143.484375 125.21875 143.796875 125.3125 144.097656 125.4375 C 144.398438 125.5625 144.683594 125.714844 144.957031 125.898438 C 145.226562 126.078125 145.476562 126.285156 145.707031 126.515625 C 145.9375 126.746094 146.144531 126.996094 146.324219 127.265625 C 146.503906 127.535156 146.65625 127.824219 146.78125 128.125 C 146.90625 128.425781 147 128.734375 147.066406 129.054688 C 147.128906 129.375 147.160156 129.695312 147.160156 130.023438 Z M 147.160156 130.023438 " fill-opacity="1" fill-rule="nonzero"/><path fill="#ffde59" d="M 125.414062 153.28125 C 125.414062 153.605469 125.382812 153.929688 125.320312 154.246094 C 125.257812 154.566406 125.160156 154.878906 125.039062 155.179688 C 124.914062 155.480469 124.761719 155.765625 124.578125 156.035156 C 124.398438 156.308594 124.191406 156.558594 123.960938 156.789062 C 123.730469 157.019531 123.480469 157.222656 123.210938 157.40625 C 122.9375 157.585938 122.652344 157.738281 122.351562 157.863281 C 122.050781 157.988281 121.742188 158.082031 121.421875 158.144531 C 121.101562 158.210938 120.777344 158.242188 120.453125 158.242188 C 120.128906 158.242188 119.804688 158.210938 119.484375 158.144531 C 119.164062 158.082031 118.855469 157.988281 118.554688 157.863281 C 118.253906 157.738281 117.96875 157.585938 117.695312 157.40625 C 117.425781 157.222656 117.175781 157.019531 116.945312 156.789062 C 116.714844 156.558594 116.507812 156.308594 116.328125 156.035156 C 116.148438 155.765625 115.992188 155.480469 115.871094 155.179688 C 115.746094 154.878906 115.652344 154.566406 115.585938 154.246094 C 115.523438 153.929688 115.492188 153.605469 115.492188 153.28125 C 115.492188 152.953125 115.523438 152.632812 115.585938 152.3125 C 115.652344 151.992188 115.746094 151.683594 115.871094 151.382812 C 115.992188 151.082031 116.148438 150.792969 116.328125 150.523438 C 116.507812 150.253906 116.714844 150 116.945312 149.769531 C 117.175781 149.539062 117.425781 149.335938 117.695312 149.15625 C 117.96875 148.972656 118.253906 148.820312 118.554688 148.695312 C 118.855469 148.570312 119.164062 148.476562 119.484375 148.414062 C 119.804688 148.351562 120.128906 148.316406 120.453125 148.316406 C 120.777344 148.316406 121.101562 148.351562 121.421875 148.414062 C 121.742188 148.476562 122.050781 148.570312 122.351562 148.695312 C 122.652344 148.820312 122.9375 148.972656 123.210938 149.15625 C 123.480469 149.335938 123.730469 149.539062 123.960938 149.769531 C 124.191406 150 124.398438 150.253906 124.578125 150.523438 C 124.761719 150.792969 124.914062 151.082031 125.039062 151.382812 C 125.160156 151.683594 125.257812 151.992188 125.320312 152.3125 C 125.382812 152.632812 125.414062 152.953125 125.414062 153.28125 Z M 125.414062 153.28125 " fill-opacity="1" fill-rule="nonzero"/><path fill="#ffde59" d="M 120.453125 178.378906 C 120.453125 178.707031 120.421875 179.027344 120.359375 179.347656 C 120.292969 179.667969 120.199219 179.976562 120.074219 180.277344 C 119.949219 180.578125 119.796875 180.867188 119.617188 181.136719 C 119.4375 181.40625 119.230469 181.65625 119 181.886719 C 118.769531 182.117188 118.519531 182.324219 118.25 182.503906 C 117.976562 182.6875 117.691406 182.839844 117.390625 182.964844 C 117.089844 183.089844 116.777344 183.183594 116.460938 183.246094 C 116.140625 183.308594 115.816406 183.339844 115.492188 183.339844 C 115.164062 183.339844 114.84375 183.308594 114.523438 183.246094 C 114.203125 183.183594 113.894531 183.089844 113.59375 182.964844 C 113.292969 182.839844 113.003906 182.6875 112.734375 182.503906 C 112.464844 182.324219 112.214844 182.117188 111.984375 181.886719 C 111.753906 181.65625 111.546875 181.40625 111.367188 181.136719 C 111.183594 180.867188 111.03125 180.578125 110.90625 180.277344 C 110.78125 179.976562 110.6875 179.667969 110.625 179.347656 C 110.5625 179.027344 110.53125 178.707031 110.53125 178.378906 C 110.53125 178.054688 110.5625 177.730469 110.625 177.410156 C 110.6875 177.09375 110.78125 176.78125 110.90625 176.480469 C 111.03125 176.179688 111.183594 175.894531 111.367188 175.625 C 111.546875 175.351562 111.753906 175.101562 111.984375 174.871094 C 112.214844 174.640625 112.464844 174.433594 112.734375 174.253906 C 113.003906 174.074219 113.292969 173.921875 113.59375 173.796875 C 113.894531 173.671875 114.203125 173.578125 114.523438 173.511719 C 114.84375 173.449219 115.164062 173.417969 115.492188 173.417969 C 115.816406 173.417969 116.140625 173.449219 116.460938 173.511719 C 116.777344 173.578125 117.089844 173.671875 117.390625 173.796875 C 117.691406 173.921875 117.976562 174.074219 118.25 174.253906 C 118.519531 174.433594 118.769531 174.640625 119 174.871094 C 119.230469 175.101562 119.4375 175.351562 119.617188 175.625 C 119.796875 175.894531 119.949219 176.179688 120.074219 176.480469 C 120.199219 176.78125 120.292969 177.09375 120.359375 177.410156 C 120.421875 177.730469 120.453125 178.054688 120.453125 178.378906 Z M 120.453125 178.378906 " fill-opacity="1" fill-rule="nonzero"/><path fill="#ffde59" d="M 166.464844 207.113281 C 166.464844 207.441406 166.433594 207.761719 166.367188 208.082031 C 166.304688 208.402344 166.210938 208.710938 166.085938 209.011719 C 165.960938 209.3125 165.808594 209.601562 165.628906 209.871094 C 165.445312 210.140625 165.242188 210.390625 165.011719 210.621094 C 164.78125 210.851562 164.53125 211.058594 164.257812 211.238281 C 163.988281 211.421875 163.703125 211.574219 163.402344 211.699219 C 163.101562 211.824219 162.789062 211.917969 162.46875 211.980469 C 162.152344 212.042969 161.828125 212.074219 161.503906 212.074219 C 161.175781 212.074219 160.855469 212.042969 160.535156 211.980469 C 160.214844 211.917969 159.90625 211.824219 159.605469 211.699219 C 159.304688 211.574219 159.015625 211.421875 158.746094 211.238281 C 158.476562 211.058594 158.222656 210.851562 157.992188 210.621094 C 157.765625 210.390625 157.558594 210.140625 157.378906 209.871094 C 157.195312 209.601562 157.042969 209.3125 156.917969 209.011719 C 156.792969 208.710938 156.699219 208.402344 156.636719 208.082031 C 156.574219 207.761719 156.539062 207.441406 156.539062 207.113281 C 156.539062 206.789062 156.574219 206.464844 156.636719 206.144531 C 156.699219 205.828125 156.792969 205.515625 156.917969 205.214844 C 157.042969 204.914062 157.195312 204.628906 157.378906 204.359375 C 157.558594 204.085938 157.765625 203.835938 157.992188 203.605469 C 158.222656 203.375 158.476562 203.167969 158.746094 202.988281 C 159.015625 202.808594 159.304688 202.65625 159.605469 202.53125 C 159.90625 202.40625 160.214844 202.3125 160.535156 202.246094 C 160.855469 202.183594 161.175781 202.152344 161.503906 202.152344 C 161.828125 202.152344 162.152344 202.183594 162.46875 202.246094 C 162.789062 202.3125 163.101562 202.40625 163.402344 202.53125 C 163.703125 202.65625 163.988281 202.808594 164.257812 202.988281 C 164.53125 203.167969 164.78125 203.375 165.011719 203.605469 C 165.242188 203.835938 165.445312 204.085938 165.628906 204.359375 C 165.808594 204.628906 165.960938 204.914062 166.085938 205.214844 C 166.210938 205.515625 166.304688 205.828125 166.367188 206.144531 C 166.433594 206.464844 166.464844 206.789062 166.464844 207.113281 Z M 166.464844 207.113281 " fill-opacity="1" fill-rule="nonzero"/><path fill="#ffde59" d="M 184.121094 196.804688 C 184.121094 197.128906 184.089844 197.453125 184.027344 197.773438 C 183.960938 198.09375 183.867188 198.402344 183.742188 198.703125 C 183.621094 199.003906 183.464844 199.289062 183.285156 199.5625 C 183.105469 199.832031 182.898438 200.082031 182.667969 200.3125 C 182.4375 200.542969 182.1875 200.75 181.917969 200.929688 C 181.644531 201.109375 181.359375 201.265625 181.058594 201.386719 C 180.757812 201.511719 180.449219 201.605469 180.128906 201.671875 C 179.808594 201.734375 179.484375 201.765625 179.160156 201.765625 C 178.835938 201.765625 178.511719 201.734375 178.191406 201.671875 C 177.871094 201.605469 177.5625 201.511719 177.261719 201.386719 C 176.960938 201.265625 176.675781 201.109375 176.402344 200.929688 C 176.132812 200.75 175.882812 200.542969 175.652344 200.3125 C 175.421875 200.082031 175.214844 199.832031 175.035156 199.5625 C 174.851562 199.289062 174.699219 199.003906 174.574219 198.703125 C 174.453125 198.402344 174.355469 198.09375 174.292969 197.773438 C 174.230469 197.453125 174.199219 197.128906 174.199219 196.804688 C 174.199219 196.480469 174.230469 196.15625 174.292969 195.835938 C 174.355469 195.515625 174.453125 195.207031 174.574219 194.90625 C 174.699219 194.605469 174.851562 194.320312 175.035156 194.046875 C 175.214844 193.777344 175.421875 193.527344 175.652344 193.296875 C 175.882812 193.066406 176.132812 192.859375 176.402344 192.679688 C 176.675781 192.496094 176.960938 192.34375 177.261719 192.21875 C 177.5625 192.097656 177.871094 192 178.191406 191.9375 C 178.511719 191.875 178.835938 191.84375 179.160156 191.84375 C 179.484375 191.84375 179.808594 191.875 180.128906 191.9375 C 180.449219 192 180.757812 192.097656 181.058594 192.21875 C 181.359375 192.34375 181.644531 192.496094 181.917969 192.679688 C 182.1875 192.859375 182.4375 193.066406 182.667969 193.296875 C 182.898438 193.527344 183.105469 193.777344 183.285156 194.046875 C 183.464844 194.320312 183.621094 194.605469 183.742188 194.90625 C 183.867188 195.207031 183.960938 195.515625 184.027344 195.835938 C 184.089844 196.15625 184.121094 196.480469 184.121094 196.804688 Z M 184.121094 196.804688 " fill-opacity="1" fill-rule="nonzero"/><path fill="#ffde59" d="M 182.804688 219.777344 C 182.804688 220.101562 182.773438 220.425781 182.710938 220.746094 C 182.648438 221.0625 182.550781 221.375 182.429688 221.675781 C 182.304688 221.976562 182.152344 222.261719 181.96875 222.53125 C 181.789062 222.804688 181.582031 223.054688 181.351562 223.285156 C 181.121094 223.515625 180.871094 223.722656 180.601562 223.902344 C 180.328125 224.082031 180.042969 224.234375 179.742188 224.359375 C 179.441406 224.484375 179.132812 224.578125 178.8125 224.644531 C 178.492188 224.707031 178.167969 224.738281 177.84375 224.738281 C 177.519531 224.738281 177.195312 224.707031 176.875 224.644531 C 176.554688 224.578125 176.246094 224.484375 175.945312 224.359375 C 175.644531 224.234375 175.359375 224.082031 175.085938 223.902344 C 174.816406 223.722656 174.566406 223.515625 174.335938 223.285156 C 174.105469 223.054688 173.898438 222.804688 173.71875 222.53125 C 173.539062 222.261719 173.382812 221.976562 173.261719 221.675781 C 173.136719 221.375 173.042969 221.0625 172.976562 220.746094 C 172.914062 220.425781 172.882812 220.101562 172.882812 219.777344 C 172.882812 219.449219 172.914062 219.128906 172.976562 218.808594 C 173.042969 218.488281 173.136719 218.179688 173.261719 217.878906 C 173.382812 217.578125 173.539062 217.289062 173.71875 217.019531 C 173.898438 216.75 174.105469 216.5 174.335938 216.269531 C 174.566406 216.039062 174.816406 215.832031 175.085938 215.652344 C 175.359375 215.46875 175.644531 215.316406 175.945312 215.191406 C 176.246094 215.066406 176.554688 214.972656 176.875 214.910156 C 177.195312 214.847656 177.519531 214.816406 177.84375 214.816406 C 178.167969 214.816406 178.492188 214.847656 178.8125 214.910156 C 179.132812 214.972656 179.441406 215.066406 179.742188 215.191406 C 180.042969 215.316406 180.328125 215.46875 180.601562 215.652344 C 180.871094 215.832031 181.121094 216.039062 181.351562 216.269531 C 181.582031 216.5 181.789062 216.75 181.96875 217.019531 C 182.152344 217.289062 182.304688 217.578125 182.429688 217.878906 C 182.550781 218.179688 182.648438 218.488281 182.710938 218.808594 C 182.773438 219.128906 182.804688 219.449219 182.804688 219.777344 Z M 182.804688 219.777344 " fill-opacity="1" fill-rule="nonzero"/><path fill="#ffde59" d="M 260.675781 194.027344 C 260.675781 194.398438 260.640625 194.765625 260.566406 195.128906 C 260.496094 195.492188 260.386719 195.847656 260.246094 196.1875 C 260.105469 196.53125 259.929688 196.859375 259.722656 197.167969 C 259.519531 197.472656 259.285156 197.761719 259.019531 198.023438 C 258.757812 198.285156 258.472656 198.519531 258.164062 198.726562 C 257.855469 198.929688 257.53125 199.105469 257.1875 199.246094 C 256.84375 199.390625 256.492188 199.496094 256.128906 199.570312 C 255.765625 199.640625 255.398438 199.675781 255.027344 199.675781 C 254.65625 199.675781 254.289062 199.640625 253.921875 199.570312 C 253.558594 199.496094 253.207031 199.390625 252.863281 199.246094 C 252.519531 199.105469 252.195312 198.929688 251.886719 198.726562 C 251.578125 198.519531 251.292969 198.285156 251.03125 198.023438 C 250.769531 197.761719 250.535156 197.472656 250.328125 197.167969 C 250.121094 196.859375 249.945312 196.53125 249.804688 196.1875 C 249.664062 195.847656 249.554688 195.492188 249.484375 195.128906 C 249.410156 194.765625 249.375 194.398438 249.375 194.027344 C 249.375 193.65625 249.410156 193.289062 249.484375 192.925781 C 249.554688 192.558594 249.664062 192.207031 249.804688 191.863281 C 249.945312 191.523438 250.121094 191.195312 250.328125 190.886719 C 250.535156 190.578125 250.769531 190.292969 251.03125 190.03125 C 251.292969 189.769531 251.578125 189.535156 251.886719 189.328125 C 252.195312 189.121094 252.519531 188.949219 252.863281 188.804688 C 253.207031 188.664062 253.558594 188.558594 253.921875 188.484375 C 254.289062 188.414062 254.65625 188.375 255.027344 188.375 C 255.398438 188.375 255.765625 188.414062 256.128906 188.484375 C 256.492188 188.558594 256.84375 188.664062 257.1875 188.804688 C 257.53125 188.949219 257.855469 189.121094 258.164062 189.328125 C 258.472656 189.535156 258.757812 189.769531 259.019531 190.03125 C 259.285156 190.292969 259.519531 190.578125 259.722656 190.886719 C 259.929688 191.195312 260.105469 191.523438 260.246094 191.863281 C 260.386719 192.207031 260.496094 192.558594 260.566406 192.925781 C 260.640625 193.289062 260.675781 193.65625 260.675781 194.027344 Z M 260.675781 194.027344 " fill-opacity="1" fill-rule="nonzero"/></svg>